<?xml version="1.0" encoding="utf-8"?>
<!-- Generator: Adobe Illustrator 19.0.0, SVG Export Plug-In . SVG Version: 6.00 Build 0)  -->
<svg version="1.1" id="layer" xmlns="http://www.w3.org/2000/svg" xmlns:xlink="http://www.w3.org/1999/xlink" x="0px" y="0px"
	 viewBox="-153 -46 652 652" style="enable-background:new -153 -46 652 652;" xml:space="preserve">
<style type="text/css">
	.st0{fill:#00703C;}
	.st1{fill:#F1AD2D;}
	.st2{fill:#E5742B;}
</style>
<g id="Symbols">
	<g id="Header-with-colors" transform="translate(-150.000000, -13.000000)">
		<g id="Logo" transform="translate(150.000000, 13.000000)">
			<polygon id="Fill-1" class="st0" points="30.8,308 49.3,308 49.3,234.3 30.8,234.3 			"/>
			<path id="Fill-2" class="st0" d="M135.5,286.5v16.1c-9.3,4.9-19,7.4-29.1,7.4c-13.2,0-23.6-3.6-31.5-10.8
				c-7.8-7.2-11.7-16.2-11.7-26.7c0-10.6,4.1-19.6,12.3-27c8.2-7.4,19-11.1,32.2-11.1c10.6,0,19.5,2.2,26.9,6.5v16.4
				c-9-5-17.5-7.6-25.5-7.6c-7.9,0-14.4,2.1-19.4,6.3c-5,4.2-7.5,9.6-7.5,16.1c0,6.5,2.5,11.9,7.4,16.2c4.9,4.2,11.3,6.4,19,6.4
				c3.8,0,7.5-0.5,11-1.5C123.2,292.1,128.5,289.9,135.5,286.5"/>
			<path id="Fill-3" class="st0" d="M193.9,234.3l32.8,73.7h-19.9l-6.1-14.6h-33.1l-5.5,14.6h-19.6l29.8-73.7H193.9z M195.4,280.6
				l-12-28.6l-10.9,28.6H195.4z"/>
			<path id="Fill-4" class="st0" d="M234.9,234.3h33.1c7.2,0,13,2.1,17.5,6.2c4.5,4.1,6.7,9.1,6.7,15c0,8.1-4.3,14.2-12.8,18.1
				c3.8,1.6,7.3,6.2,10.7,13.5c3.4,7.4,6.6,14.4,9.7,20.9h-20.2c-1.2-2.4-3.3-7.1-6.4-13.9c-3-6.8-5.6-11.2-7.7-13.1
				c-2.1-1.9-4.4-2.9-6.9-2.9h-5.3V308h-18.5V234.3z M253.3,247.8v16.8h9.7c3.1,0,5.5-0.7,7.4-2.2c1.8-1.5,2.7-3.5,2.7-6.3
				c0-5.5-3.5-8.3-10.5-8.3H253.3z"/>
			<path id="Fill-5" class="st0" d="M309.4,234.3h32.7c12.6,0,22.6,3.4,30,10.3c7.3,6.9,11,15.8,11,26.7c0,11.4-3.7,20.4-11.2,26.9
				c-7.4,6.5-18.1,9.8-31.9,9.8h-30.6V234.3z M327.8,247.8v46.7h12.1c7.8,0,13.8-2.1,17.9-6.4c4.2-4.3,6.2-9.9,6.2-16.9
				c0-7.2-2.1-13-6.3-17.1c-4.2-4.2-10.2-6.3-18.1-6.3H327.8z"/>
			<path id="Fill-6" class="st0" d="M433.6,234.3l32.8,73.7h-19.9l-6.1-14.6h-33.1l-5.5,14.6h-19.6l29.8-73.7H433.6z M435,280.6
				l-12-28.6l-10.9,28.6H435z"/>
			<path id="Fill-7" class="st0" d="M-117.1,341.7c-0.1,0.2-0.3,0.4-0.4,0.5c-0.1,0.1-0.3,0.2-0.5,0.2c-0.2,0-0.5-0.1-0.7-0.2
				c-0.3-0.2-0.6-0.3-0.9-0.5c-0.4-0.2-0.8-0.4-1.3-0.5c-0.5-0.2-1-0.2-1.7-0.2c-0.6,0-1.1,0.1-1.6,0.2c-0.4,0.1-0.8,0.3-1.1,0.6
				c-0.3,0.3-0.5,0.6-0.7,0.9c-0.1,0.4-0.2,0.7-0.2,1.2c0,0.5,0.2,1,0.5,1.3c0.3,0.4,0.7,0.7,1.2,0.9c0.5,0.3,1.1,0.5,1.7,0.7
				c0.6,0.2,1.3,0.4,1.9,0.6c0.7,0.2,1.3,0.5,1.9,0.8c0.6,0.3,1.2,0.7,1.7,1.1c0.5,0.5,0.9,1,1.2,1.7c0.3,0.7,0.4,1.5,0.4,2.4
				c0,1-0.2,2-0.5,2.9c-0.4,0.9-0.9,1.7-1.6,2.3c-0.7,0.7-1.5,1.2-2.5,1.6c-1,0.4-2.1,0.6-3.4,0.6c-0.7,0-1.4-0.1-2.2-0.2
				c-0.7-0.1-1.4-0.3-2-0.6c-0.6-0.3-1.3-0.6-1.8-0.9c-0.6-0.4-1.1-0.8-1.5-1.2l1.3-2c0.1-0.1,0.2-0.3,0.4-0.4s0.3-0.1,0.5-0.1
				c0.3,0,0.5,0.1,0.9,0.3c0.3,0.2,0.7,0.5,1.1,0.7c0.4,0.3,0.9,0.5,1.5,0.7c0.6,0.2,1.2,0.3,2,0.3c1.2,0,2.2-0.3,2.8-0.9
				c0.7-0.6,1-1.4,1-2.5c0-0.6-0.1-1.1-0.4-1.5c-0.3-0.4-0.7-0.7-1.2-1c-0.5-0.3-1.1-0.5-1.7-0.7c-0.6-0.2-1.3-0.4-1.9-0.6
				c-0.7-0.2-1.3-0.5-1.9-0.8c-0.6-0.3-1.2-0.7-1.7-1.1c-0.5-0.5-0.9-1.1-1.2-1.8c-0.3-0.7-0.5-1.6-0.5-2.6c0-0.8,0.2-1.6,0.5-2.4
				c0.3-0.8,0.8-1.5,1.4-2.1c0.6-0.6,1.4-1.1,2.3-1.5s2-0.6,3.2-0.6c1.4,0,2.6,0.2,3.7,0.6c1.1,0.4,2.1,1,2.9,1.8L-117.1,341.7"/>
			<path id="Fill-8" class="st0" d="M-102.5,347.4c-0.1,0.1-0.2,0.3-0.3,0.3c-0.1,0.1-0.3,0.1-0.5,0.1c-0.2,0-0.4-0.1-0.6-0.2
				c-0.2-0.1-0.4-0.3-0.7-0.4c-0.3-0.2-0.6-0.3-0.9-0.4c-0.4-0.1-0.8-0.2-1.4-0.2c-0.7,0-1.3,0.1-1.8,0.4c-0.5,0.2-0.9,0.6-1.3,1.1
				c-0.3,0.5-0.6,1-0.8,1.7s-0.3,1.4-0.3,2.2c0,0.9,0.1,1.6,0.3,2.3c0.2,0.7,0.4,1.2,0.8,1.7c0.3,0.5,0.8,0.8,1.3,1
				c0.5,0.2,1.1,0.4,1.7,0.4c0.6,0,1.1-0.1,1.5-0.2c0.4-0.2,0.7-0.3,1-0.5c0.3-0.2,0.5-0.4,0.7-0.5c0.2-0.2,0.4-0.2,0.7-0.2
				c0.3,0,0.6,0.1,0.7,0.4l1.1,1.4c-0.4,0.5-0.9,0.9-1.4,1.3c-0.5,0.3-1,0.6-1.6,0.8c-0.5,0.2-1.1,0.4-1.7,0.4
				c-0.6,0.1-1.1,0.1-1.7,0.1c-1,0-1.9-0.2-2.8-0.6s-1.7-0.9-2.3-1.6c-0.7-0.7-1.2-1.6-1.6-2.6c-0.4-1-0.6-2.2-0.6-3.5
				c0-1.2,0.2-2.3,0.5-3.3c0.3-1,0.8-1.9,1.5-2.6c0.7-0.7,1.5-1.3,2.5-1.7c1-0.4,2.1-0.6,3.4-0.6c1.2,0,2.3,0.2,3.2,0.6
				c0.9,0.4,1.7,0.9,2.5,1.7L-102.5,347.4"/>
			<path id="Fill-9" class="st0" d="M-98.2,360.7h3.9v-16.1h-3.9V360.7z M-93.8,339.8c0,0.3-0.1,0.7-0.2,0.9
				c-0.1,0.3-0.3,0.6-0.5,0.8c-0.2,0.2-0.5,0.4-0.8,0.5c-0.3,0.1-0.6,0.2-1,0.2c-0.3,0-0.7-0.1-1-0.2c-0.3-0.1-0.6-0.3-0.8-0.5
				c-0.2-0.2-0.4-0.5-0.5-0.8c-0.1-0.3-0.2-0.6-0.2-0.9c0-0.3,0.1-0.7,0.2-1c0.1-0.3,0.3-0.6,0.5-0.8c0.2-0.2,0.5-0.4,0.8-0.5
				c0.3-0.1,0.6-0.2,1-0.2c0.3,0,0.7,0.1,1,0.2c0.3,0.1,0.6,0.3,0.8,0.5c0.2,0.2,0.4,0.5,0.5,0.8C-93.8,339.2-93.8,339.5-93.8,339.8
				z"/>
			<path id="Fill-10" class="st0" d="M-82.9,343.8c1,0,2,0.2,2.8,0.5c0.9,0.3,1.6,0.8,2.2,1.4c0.6,0.6,1.1,1.4,1.5,2.3
				c0.4,0.9,0.5,1.9,0.5,3.1c0,0.6-0.1,1-0.2,1.2c-0.1,0.2-0.4,0.3-0.7,0.3h-10c0.1,0.8,0.2,1.5,0.4,2.1c0.2,0.6,0.5,1.1,0.9,1.5
				c0.4,0.4,0.8,0.7,1.4,0.9c0.5,0.2,1.1,0.3,1.7,0.3c0.6,0,1.2-0.1,1.6-0.2c0.5-0.1,0.9-0.3,1.2-0.5c0.3-0.2,0.6-0.3,0.9-0.5
				c0.3-0.1,0.5-0.2,0.7-0.2c0.3,0,0.6,0.1,0.7,0.4l1.1,1.4c-0.4,0.5-0.9,0.9-1.5,1.3c-0.5,0.3-1.1,0.6-1.7,0.8
				c-0.6,0.2-1.2,0.4-1.8,0.4c-0.6,0.1-1.2,0.1-1.8,0.1c-1.1,0-2.2-0.2-3.1-0.6c-1-0.4-1.8-0.9-2.5-1.7c-0.7-0.7-1.3-1.6-1.7-2.7
				c-0.4-1.1-0.6-2.3-0.6-3.7c0-1.1,0.2-2.1,0.5-3.1c0.4-1,0.9-1.8,1.5-2.5c0.7-0.7,1.5-1.3,2.5-1.7
				C-85.2,344-84.1,343.8-82.9,343.8z M-82.8,346.6c-1.1,0-2,0.3-2.7,1c-0.6,0.6-1.1,1.5-1.2,2.7h7.4c0-0.5-0.1-1-0.2-1.4
				c-0.1-0.4-0.4-0.8-0.6-1.2c-0.3-0.3-0.6-0.6-1.1-0.8C-81.7,346.7-82.2,346.6-82.8,346.6z"/>
			<path id="Fill-11" class="st0" d="M-72.8,360.2V344h2.4c0.5,0,0.8,0.2,1,0.7l0.3,1.3c0.3-0.3,0.7-0.6,1-0.9
				c0.4-0.3,0.7-0.5,1.2-0.7s0.8-0.4,1.3-0.5c0.5-0.1,1-0.2,1.5-0.2c0.9,0,1.7,0.1,2.4,0.4c0.7,0.3,1.3,0.7,1.7,1.3
				c0.5,0.5,0.8,1.2,1,1.9c0.2,0.8,0.4,1.6,0.4,2.5v10.3h-3.9v-10.3c0-1-0.2-1.7-0.7-2.3c-0.5-0.5-1.1-0.8-2.1-0.8
				c-0.7,0-1.3,0.2-1.9,0.5c-0.6,0.3-1.1,0.7-1.7,1.2v11.7H-72.8"/>
			<path id="Fill-12" class="st0" d="M-44.2,347.4c-0.1,0.1-0.2,0.3-0.3,0.3c-0.1,0.1-0.3,0.1-0.5,0.1c-0.2,0-0.4-0.1-0.6-0.2
				c-0.2-0.1-0.4-0.3-0.7-0.4c-0.3-0.2-0.6-0.3-0.9-0.4c-0.4-0.1-0.8-0.2-1.4-0.2c-0.7,0-1.3,0.1-1.8,0.4c-0.5,0.2-0.9,0.6-1.3,1.1
				c-0.3,0.5-0.6,1-0.8,1.7c-0.2,0.7-0.3,1.4-0.3,2.2c0,0.9,0.1,1.6,0.3,2.3c0.2,0.7,0.4,1.2,0.8,1.7c0.3,0.5,0.8,0.8,1.3,1
				c0.5,0.2,1.1,0.4,1.7,0.4c0.6,0,1.1-0.1,1.5-0.2c0.4-0.2,0.7-0.3,1-0.5c0.3-0.2,0.5-0.4,0.7-0.5c0.2-0.2,0.4-0.2,0.7-0.2
				c0.3,0,0.6,0.1,0.7,0.4l1.1,1.4c-0.4,0.5-0.9,0.9-1.4,1.3c-0.5,0.3-1,0.6-1.6,0.8c-0.5,0.2-1.1,0.4-1.7,0.4
				c-0.6,0.1-1.1,0.1-1.7,0.1c-1,0-1.9-0.2-2.8-0.6c-0.9-0.4-1.7-0.9-2.3-1.6c-0.7-0.7-1.2-1.6-1.6-2.6c-0.4-1-0.6-2.2-0.6-3.5
				c0-1.2,0.2-2.3,0.5-3.3c0.3-1,0.8-1.9,1.5-2.6c0.7-0.7,1.5-1.3,2.5-1.7c1-0.4,2.1-0.6,3.4-0.6c1.2,0,2.3,0.2,3.2,0.6
				c0.9,0.4,1.7,0.9,2.5,1.7L-44.2,347.4"/>
			<path id="Fill-13" class="st0" d="M-32.7,343.8c1,0,2,0.2,2.8,0.5c0.9,0.3,1.6,0.8,2.2,1.4c0.6,0.6,1.1,1.4,1.5,2.3
				c0.4,0.9,0.5,1.9,0.5,3.1c0,0.6-0.1,1-0.2,1.2c-0.1,0.2-0.4,0.3-0.7,0.3h-10c0.1,0.8,0.2,1.5,0.4,2.1c0.2,0.6,0.5,1.1,0.9,1.5
				c0.4,0.4,0.8,0.7,1.4,0.9c0.5,0.2,1.1,0.3,1.7,0.3c0.6,0,1.2-0.1,1.6-0.2c0.5-0.1,0.9-0.3,1.2-0.5c0.3-0.2,0.6-0.3,0.9-0.5
				c0.3-0.1,0.5-0.2,0.7-0.2c0.3,0,0.6,0.1,0.7,0.4l1.1,1.4c-0.4,0.5-0.9,0.9-1.5,1.3c-0.5,0.3-1.1,0.6-1.7,0.8
				c-0.6,0.2-1.2,0.4-1.8,0.4c-0.6,0.1-1.2,0.1-1.8,0.1c-1.1,0-2.2-0.2-3.1-0.6c-1-0.4-1.8-0.9-2.5-1.7c-0.7-0.7-1.3-1.6-1.7-2.7
				c-0.4-1.1-0.6-2.3-0.6-3.7c0-1.1,0.2-2.1,0.5-3.1c0.4-1,0.9-1.8,1.5-2.5c0.7-0.7,1.5-1.3,2.5-1.7C-35,344-33.9,343.8-32.7,343.8z
				 M-32.6,346.6c-1.1,0-2,0.3-2.7,1c-0.6,0.6-1.1,1.5-1.2,2.7h7.4c0-0.5-0.1-1-0.2-1.4c-0.1-0.4-0.4-0.8-0.6-1.2
				c-0.3-0.3-0.6-0.6-1.1-0.8C-31.5,346.7-32,346.6-32.6,346.6z"/>
			<path id="Fill-14" class="st0" d="M-15.4,360.5v-13.2l-1.4-0.2c-0.3-0.1-0.5-0.2-0.7-0.3c-0.2-0.2-0.3-0.4-0.3-0.7v-1.6h2.4v-1.2
				c0-0.9,0.1-1.8,0.4-2.5c0.3-0.7,0.7-1.4,1.2-1.9c0.5-0.5,1.2-0.9,1.9-1.2c0.7-0.3,1.6-0.4,2.5-0.4c0.7,0,1.4,0.1,2.1,0.3
				l-0.1,1.9c0,0.1-0.1,0.3-0.1,0.4c-0.1,0.1-0.2,0.2-0.3,0.2c-0.1,0-0.3,0.1-0.4,0.1c-0.2,0-0.3,0-0.5,0c-0.5,0-0.9,0-1.2,0.1
				c-0.4,0.1-0.7,0.3-0.9,0.5c-0.3,0.2-0.4,0.6-0.6,1c-0.1,0.4-0.2,0.9-0.2,1.5v1.1h4.2v2.8h-4.1v13.2H-15.4"/>
			<path id="Fill-15" class="st0" d="M1.6,343.8c1.2,0,2.3,0.2,3.3,0.6c1,0.4,1.8,0.9,2.5,1.6c0.7,0.7,1.2,1.6,1.6,2.6
				c0.4,1,0.6,2.2,0.6,3.4c0,1.3-0.2,2.4-0.6,3.5c-0.4,1-0.9,1.9-1.6,2.6c-0.7,0.7-1.5,1.3-2.5,1.7c-1,0.4-2.1,0.6-3.3,0.6
				c-1.2,0-2.3-0.2-3.3-0.6c-1-0.4-1.8-0.9-2.5-1.7c-0.7-0.7-1.2-1.6-1.6-2.6c-0.4-1-0.6-2.2-0.6-3.5c0-1.3,0.2-2.4,0.6-3.4
				c0.4-1,0.9-1.9,1.6-2.6c0.7-0.7,1.5-1.3,2.5-1.6C-0.7,344,0.4,343.8,1.6,343.8z M1.6,357.4c1.4,0,2.4-0.5,3-1.4
				c0.6-0.9,1-2.2,1-4s-0.3-3.1-1-4c-0.6-0.9-1.7-1.4-3-1.4c-1.4,0-2.4,0.5-3,1.4c-0.7,0.9-1,2.2-1,4c0,1.7,0.3,3,1,4
				C-0.8,357,0.2,357.4,1.6,357.4z"/>
			<path id="Fill-16" class="st0" d="M13,360.2v-16.1h2.3c0.4,0,0.7,0.1,0.8,0.2c0.2,0.1,0.3,0.4,0.3,0.8l0.2,1.8
				c0.5-1,1.1-1.7,1.8-2.3c0.7-0.6,1.5-0.8,2.5-0.8c0.7,0,1.3,0.2,1.8,0.5l-0.3,2.9c-0.1,0.2-0.1,0.3-0.2,0.4
				c-0.1,0.1-0.2,0.1-0.4,0.1c-0.2,0-0.4,0-0.7-0.1c-0.3-0.1-0.6-0.1-0.9-0.1c-0.4,0-0.8,0.1-1.2,0.2c-0.3,0.1-0.6,0.3-0.9,0.5
				c-0.3,0.2-0.5,0.5-0.7,0.9c-0.2,0.3-0.4,0.7-0.6,1.1v9.9H13"/>
			<path id="Fill-17" class="st0" d="M32.4,360.2v-16.1h2.3c0.4,0,0.7,0.1,0.8,0.2c0.2,0.1,0.3,0.4,0.3,0.8l0.2,1.8
				c0.5-1,1.1-1.7,1.8-2.3c0.7-0.6,1.5-0.8,2.5-0.8c0.7,0,1.4,0.2,1.8,0.5l-0.3,2.9c-0.1,0.2-0.1,0.3-0.2,0.4
				c-0.1,0.1-0.2,0.1-0.4,0.1c-0.2,0-0.4,0-0.7-0.1c-0.3-0.1-0.6-0.1-0.9-0.1c-0.4,0-0.8,0.1-1.2,0.2c-0.3,0.1-0.6,0.3-0.9,0.5
				c-0.3,0.2-0.5,0.5-0.7,0.9c-0.2,0.3-0.4,0.7-0.6,1.1v9.9H32.4"/>
			<path id="Fill-18" class="st0" d="M49.9,343.8c1,0,2,0.2,2.8,0.5c0.9,0.3,1.6,0.8,2.2,1.4c0.6,0.6,1.1,1.4,1.5,2.3
				c0.4,0.9,0.5,1.9,0.5,3.1c0,0.6-0.1,1-0.2,1.2c-0.1,0.2-0.4,0.3-0.7,0.3H46c0.1,0.8,0.2,1.5,0.4,2.1c0.2,0.6,0.5,1.1,0.9,1.5
				c0.4,0.4,0.8,0.7,1.4,0.9c0.5,0.2,1.1,0.3,1.7,0.3c0.6,0,1.2-0.1,1.6-0.2c0.5-0.1,0.9-0.3,1.2-0.5c0.3-0.2,0.6-0.3,0.9-0.5
				c0.3-0.1,0.5-0.2,0.7-0.2c0.3,0,0.6,0.1,0.7,0.4l1.1,1.4c-0.4,0.5-0.9,0.9-1.5,1.3c-0.5,0.3-1.1,0.6-1.7,0.8
				c-0.6,0.2-1.2,0.4-1.8,0.4c-0.6,0.1-1.2,0.1-1.8,0.1c-1.1,0-2.2-0.2-3.1-0.6s-1.8-0.9-2.5-1.7c-0.7-0.7-1.3-1.6-1.7-2.7
				c-0.4-1.1-0.6-2.3-0.6-3.7c0-1.1,0.2-2.1,0.5-3.1c0.4-1,0.9-1.8,1.5-2.5c0.7-0.7,1.5-1.3,2.5-1.7C47.6,344,48.7,343.8,49.9,343.8
				z M50,346.6c-1.1,0-2,0.3-2.7,1c-0.6,0.6-1.1,1.5-1.2,2.7h7.4c0-0.5-0.1-1-0.2-1.4c-0.1-0.4-0.4-0.8-0.6-1.2
				c-0.3-0.3-0.6-0.6-1.1-0.8C51.1,346.7,50.6,346.6,50,346.6z"/>
			<path id="Fill-19" class="st0" d="M71,347.2c-0.1,0.2-0.2,0.3-0.3,0.4c-0.1,0.1-0.3,0.1-0.4,0.1c-0.2,0-0.4-0.1-0.6-0.2
				c-0.2-0.1-0.5-0.2-0.8-0.4c-0.3-0.1-0.6-0.2-1-0.4c-0.4-0.1-0.8-0.2-1.3-0.2c-0.8,0-1.4,0.2-1.8,0.5c-0.4,0.3-0.7,0.8-0.7,1.3
				c0,0.3,0.1,0.6,0.3,0.9c0.2,0.2,0.5,0.4,0.9,0.6c0.4,0.2,0.8,0.3,1.3,0.5c0.5,0.1,1,0.3,1.4,0.5c0.5,0.2,1,0.4,1.4,0.6
				c0.5,0.2,0.9,0.5,1.3,0.8c0.4,0.3,0.7,0.7,0.9,1.2c0.2,0.5,0.3,1,0.3,1.7c0,0.8-0.1,1.5-0.4,2.1c-0.3,0.7-0.7,1.2-1.2,1.7
				c-0.5,0.5-1.2,0.8-2,1.1c-0.8,0.3-1.7,0.4-2.8,0.4c-0.6,0-1.1-0.1-1.6-0.2c-0.5-0.1-1-0.2-1.5-0.4c-0.5-0.2-0.9-0.4-1.4-0.6
				c-0.4-0.2-0.8-0.5-1.1-0.8l0.9-1.5c0.1-0.2,0.3-0.3,0.4-0.4c0.2-0.1,0.4-0.1,0.6-0.1c0.2,0,0.5,0.1,0.7,0.2
				c0.2,0.1,0.5,0.3,0.7,0.4c0.3,0.2,0.6,0.3,1,0.4c0.4,0.1,0.9,0.2,1.5,0.2c0.5,0,0.9-0.1,1.2-0.2c0.3-0.1,0.6-0.3,0.8-0.4
				c0.2-0.2,0.4-0.4,0.5-0.6c0.1-0.2,0.1-0.5,0.1-0.7c0-0.4-0.1-0.7-0.3-0.9c-0.2-0.2-0.5-0.5-0.9-0.6c-0.4-0.2-0.8-0.3-1.3-0.5
				c-0.5-0.1-1-0.3-1.5-0.5c-0.5-0.2-1-0.4-1.5-0.6c-0.5-0.2-0.9-0.5-1.3-0.9s-0.7-0.8-0.9-1.3c-0.2-0.5-0.3-1.1-0.3-1.8
				c0-0.7,0.1-1.3,0.4-1.9c0.3-0.6,0.7-1.1,1.2-1.6c0.5-0.4,1.1-0.8,1.9-1.1c0.8-0.3,1.6-0.4,2.6-0.4c1.1,0,2.1,0.2,3.1,0.6
				c0.9,0.4,1.7,0.8,2.3,1.4L71,347.2"/>
			<path id="Fill-20" class="st0" d="M75.1,360.7H79v-16.1h-3.9V360.7z M79.5,339.8c0,0.3-0.1,0.7-0.2,0.9c-0.1,0.3-0.3,0.6-0.5,0.8
				c-0.2,0.2-0.5,0.4-0.8,0.5c-0.3,0.1-0.6,0.2-1,0.2c-0.3,0-0.7-0.1-1-0.2c-0.3-0.1-0.6-0.3-0.8-0.5c-0.2-0.2-0.4-0.5-0.5-0.8
				c-0.1-0.3-0.2-0.6-0.2-0.9c0-0.3,0.1-0.7,0.2-1c0.1-0.3,0.3-0.6,0.5-0.8c0.2-0.2,0.5-0.4,0.8-0.5c0.3-0.1,0.6-0.2,1-0.2
				c0.3,0,0.7,0.1,1,0.2c0.3,0.1,0.6,0.3,0.8,0.5c0.2,0.2,0.4,0.5,0.5,0.8C79.5,339.2,79.5,339.5,79.5,339.8z"/>
			<polygon id="Fill-21" class="st0" points="82.6,360.7 86.5,360.7 86.5,337.3 82.6,337.3 			"/>
			<path id="Fill-22" class="st0" d="M89.6,360.7h3.9v-16.1h-3.9V360.7z M94.1,339.8c0,0.3-0.1,0.7-0.2,0.9
				c-0.1,0.3-0.3,0.6-0.5,0.8c-0.2,0.2-0.5,0.4-0.8,0.5c-0.3,0.1-0.6,0.2-1,0.2c-0.3,0-0.7-0.1-1-0.2c-0.3-0.1-0.6-0.3-0.8-0.5
				c-0.2-0.2-0.4-0.5-0.5-0.8c-0.1-0.3-0.2-0.6-0.2-0.9c0-0.3,0.1-0.7,0.2-1c0.1-0.3,0.3-0.6,0.5-0.8c0.2-0.2,0.5-0.4,0.8-0.5
				c0.3-0.1,0.6-0.2,1-0.2c0.3,0,0.7,0.1,1,0.2c0.3,0.1,0.6,0.3,0.8,0.5c0.2,0.2,0.4,0.5,0.5,0.8C94,339.2,94.1,339.5,94.1,339.8z"
				/>
			<path id="Fill-23" class="st0" d="M105,343.8c1,0,2,0.2,2.8,0.5c0.9,0.3,1.6,0.8,2.2,1.4c0.6,0.6,1.1,1.4,1.5,2.3
				c0.4,0.9,0.5,1.9,0.5,3.1c0,0.6-0.1,1-0.2,1.2c-0.1,0.2-0.4,0.3-0.7,0.3h-10c0.1,0.8,0.2,1.5,0.4,2.1c0.2,0.6,0.5,1.1,0.9,1.5
				c0.4,0.4,0.8,0.7,1.4,0.9c0.5,0.2,1.1,0.3,1.7,0.3c0.6,0,1.2-0.1,1.6-0.2c0.5-0.1,0.9-0.3,1.2-0.5c0.3-0.2,0.6-0.3,0.9-0.5
				c0.3-0.1,0.5-0.2,0.7-0.2c0.3,0,0.6,0.1,0.7,0.4l1.1,1.4c-0.4,0.5-0.9,0.9-1.5,1.3c-0.5,0.3-1.1,0.6-1.7,0.8
				c-0.6,0.2-1.2,0.4-1.8,0.4c-0.6,0.1-1.2,0.1-1.8,0.1c-1.1,0-2.2-0.2-3.1-0.6c-1-0.4-1.8-0.9-2.5-1.7c-0.7-0.7-1.3-1.6-1.7-2.7
				c-0.4-1.1-0.6-2.3-0.6-3.7c0-1.1,0.2-2.1,0.5-3.1c0.4-1,0.9-1.8,1.5-2.5c0.7-0.7,1.5-1.3,2.5-1.7
				C102.7,344,103.8,343.8,105,343.8z M105.1,346.6c-1.1,0-2,0.3-2.7,1c-0.6,0.6-1.1,1.5-1.2,2.7h7.4c0-0.5-0.1-1-0.2-1.4
				c-0.1-0.4-0.4-0.8-0.6-1.2c-0.3-0.3-0.6-0.6-1.1-0.8C106.2,346.7,105.7,346.6,105.1,346.6z"/>
			<path id="Fill-24" class="st0" d="M115,360.2V344h2.4c0.5,0,0.8,0.2,1,0.7l0.3,1.3c0.3-0.3,0.7-0.6,1-0.9
				c0.4-0.3,0.7-0.5,1.2-0.7c0.4-0.2,0.8-0.4,1.3-0.5c0.5-0.1,1-0.2,1.5-0.2c0.9,0,1.7,0.1,2.4,0.4c0.7,0.3,1.3,0.7,1.7,1.3
				c0.5,0.5,0.8,1.2,1,1.9c0.2,0.8,0.4,1.6,0.4,2.5v10.3h-3.9v-10.3c0-1-0.2-1.7-0.7-2.3c-0.5-0.5-1.1-0.8-2.1-0.8
				c-0.7,0-1.3,0.2-1.9,0.5c-0.6,0.3-1.1,0.7-1.7,1.2v11.7H115"/>
			<path id="Fill-25" class="st0" d="M138,360.3c-1.4,0-2.5-0.4-3.2-1.2c-0.8-0.8-1.1-1.9-1.1-3.3v-9H132c-0.2,0-0.4-0.1-0.5-0.2
				c-0.1-0.1-0.2-0.3-0.2-0.6v-1.5l2.6-0.4l0.8-4.4c0.1-0.2,0.2-0.4,0.3-0.5c0.1-0.1,0.3-0.2,0.6-0.2h2v5.1h4.3v2.8h-4.3v8.7
				c0,0.5,0.1,0.9,0.4,1.2c0.2,0.3,0.6,0.4,1,0.4c0.2,0,0.4,0,0.6-0.1c0.2-0.1,0.3-0.1,0.4-0.2c0.1-0.1,0.2-0.1,0.3-0.2
				s0.2-0.1,0.3-0.1c0.1,0,0.2,0,0.3,0.1c0.1,0.1,0.2,0.1,0.2,0.3l1.2,1.9c-0.6,0.5-1.2,0.8-2,1.1
				C139.6,360.2,138.8,360.3,138,360.3"/>
			<polygon id="Fill-26" class="st0" points="152.3,360.7 156.2,360.7 156.2,337.3 152.3,337.3 			"/>
			<path id="Fill-27" class="st0" d="M160.9,360.7h3.9v-16.1h-3.9V360.7z M165.4,339.8c0,0.3-0.1,0.7-0.2,0.9
				c-0.1,0.3-0.3,0.6-0.5,0.8c-0.2,0.2-0.5,0.4-0.8,0.5c-0.3,0.1-0.6,0.2-1,0.2c-0.3,0-0.7-0.1-1-0.2c-0.3-0.1-0.6-0.3-0.8-0.5
				c-0.2-0.2-0.4-0.5-0.5-0.8c-0.1-0.3-0.2-0.6-0.2-0.9c0-0.3,0.1-0.7,0.2-1c0.1-0.3,0.3-0.6,0.5-0.8c0.2-0.2,0.5-0.4,0.8-0.5
				c0.3-0.1,0.6-0.2,1-0.2c0.3,0,0.7,0.1,1,0.2c0.3,0.1,0.6,0.3,0.8,0.5c0.2,0.2,0.4,0.5,0.5,0.8
				C165.3,339.2,165.4,339.5,165.4,339.8z"/>
			<path id="Fill-28" class="st0" d="M166.8,343.8h3.2c0.3,0,0.5,0.1,0.7,0.2c0.2,0.1,0.3,0.3,0.4,0.5l3.1,8.6
				c0.2,0.5,0.3,1,0.4,1.5c0.1,0.5,0.2,1,0.3,1.4c0.1-0.5,0.2-1,0.3-1.4c0.1-0.5,0.3-1,0.5-1.5l3.2-8.6c0.1-0.2,0.2-0.4,0.4-0.5
				c0.2-0.1,0.4-0.2,0.7-0.2h3.1l-6.4,16.1h-3.5L166.8,343.8"/>
			<path id="Fill-29" class="st0" d="M190.8,343.8c1,0,2,0.2,2.8,0.5c0.9,0.3,1.6,0.8,2.2,1.4c0.6,0.6,1.1,1.4,1.5,2.3
				c0.4,0.9,0.5,1.9,0.5,3.1c0,0.6-0.1,1-0.2,1.2c-0.1,0.2-0.4,0.3-0.7,0.3h-10c0.1,0.8,0.2,1.5,0.4,2.1c0.2,0.6,0.5,1.1,0.9,1.5
				c0.4,0.4,0.8,0.7,1.4,0.9c0.5,0.2,1.1,0.3,1.7,0.3s1.2-0.1,1.6-0.2c0.5-0.1,0.9-0.3,1.2-0.5c0.3-0.2,0.6-0.3,0.9-0.5
				c0.3-0.1,0.5-0.2,0.7-0.2c0.3,0,0.6,0.1,0.7,0.4l1.1,1.4c-0.4,0.5-0.9,0.9-1.5,1.3c-0.5,0.3-1.1,0.6-1.7,0.8
				c-0.6,0.2-1.2,0.4-1.8,0.4s-1.2,0.1-1.8,0.1c-1.1,0-2.2-0.2-3.1-0.6c-1-0.4-1.8-0.9-2.5-1.7c-0.7-0.7-1.3-1.6-1.7-2.7
				c-0.4-1.1-0.6-2.3-0.6-3.7c0-1.1,0.2-2.1,0.5-3.1c0.4-1,0.9-1.8,1.5-2.5c0.7-0.7,1.5-1.3,2.5-1.7
				C188.5,344,189.6,343.8,190.8,343.8z M190.9,346.6c-1.1,0-2,0.3-2.7,1c-0.6,0.6-1.1,1.5-1.2,2.7h7.4c0-0.5-0.1-1-0.2-1.4
				c-0.1-0.4-0.4-0.8-0.6-1.2c-0.3-0.3-0.6-0.6-1.1-0.8C192,346.7,191.5,346.6,190.9,346.6z"/>
			<polygon id="Fill-30" class="st0" points="200.8,360.7 204.8,360.7 204.8,337.3 200.8,337.3 			"/>
			<path id="Fill-31" class="st0" d="M209.5,360.7h3.9v-16.1h-3.9V360.7z M213.9,339.8c0,0.3-0.1,0.7-0.2,0.9
				c-0.1,0.3-0.3,0.6-0.5,0.8c-0.2,0.2-0.5,0.4-0.8,0.5c-0.3,0.1-0.6,0.2-1,0.2c-0.3,0-0.7-0.1-1-0.2c-0.3-0.1-0.6-0.3-0.8-0.5
				c-0.2-0.2-0.4-0.5-0.5-0.8c-0.1-0.3-0.2-0.6-0.2-0.9c0-0.3,0.1-0.7,0.2-1c0.1-0.3,0.3-0.6,0.5-0.8c0.2-0.2,0.5-0.4,0.8-0.5
				c0.3-0.1,0.6-0.2,1-0.2c0.3,0,0.7,0.1,1,0.2c0.3,0.1,0.6,0.3,0.8,0.5c0.2,0.2,0.4,0.5,0.5,0.8
				C213.9,339.2,213.9,339.5,213.9,339.8z"/>
			<path id="Fill-32" class="st0" d="M217,360.7v-23.4h3.9v9c0.6-0.6,1.3-1.1,2.1-1.4c0.8-0.4,1.7-0.6,2.7-0.6
				c0.9,0,1.7,0.1,2.4,0.4c0.7,0.3,1.3,0.7,1.7,1.3c0.5,0.5,0.8,1.2,1,1.9c0.2,0.8,0.4,1.6,0.4,2.5v10.3h-3.9v-10.3
				c0-1-0.2-1.7-0.7-2.3c-0.5-0.5-1.1-0.8-2.1-0.8c-0.7,0-1.3,0.2-1.9,0.5c-0.6,0.3-1.1,0.7-1.7,1.2v11.7H217"/>
			<path id="Fill-33" class="st0" d="M242.9,343.8c1.2,0,2.3,0.2,3.3,0.6c1,0.4,1.8,0.9,2.5,1.6c0.7,0.7,1.2,1.6,1.6,2.6
				c0.4,1,0.6,2.2,0.6,3.4c0,1.3-0.2,2.4-0.6,3.5c-0.4,1-0.9,1.9-1.6,2.6c-0.7,0.7-1.5,1.3-2.5,1.7c-1,0.4-2.1,0.6-3.3,0.6
				c-1.2,0-2.3-0.2-3.3-0.6c-1-0.4-1.8-0.9-2.5-1.7c-0.7-0.7-1.2-1.6-1.6-2.6c-0.4-1-0.6-2.2-0.6-3.5c0-1.3,0.2-2.4,0.6-3.4
				c0.4-1,0.9-1.9,1.6-2.6c0.7-0.7,1.5-1.3,2.5-1.6C240.6,344,241.7,343.8,242.9,343.8z M242.9,357.4c1.3,0,2.4-0.5,3-1.4
				c0.6-0.9,1-2.2,1-4s-0.3-3.1-1-4c-0.6-0.9-1.7-1.4-3-1.4c-1.4,0-2.4,0.5-3,1.4c-0.7,0.9-1,2.2-1,4c0,1.7,0.3,3,1,4
				C240.5,357,241.5,357.4,242.9,357.4z"/>
			<path id="Fill-34" class="st0" d="M260.7,343.8c1.2,0,2.3,0.2,3.3,0.6c1,0.4,1.8,0.9,2.5,1.6c0.7,0.7,1.2,1.6,1.6,2.6
				c0.4,1,0.6,2.2,0.6,3.4c0,1.3-0.2,2.4-0.6,3.5c-0.4,1-0.9,1.9-1.6,2.6c-0.7,0.7-1.5,1.3-2.5,1.7c-1,0.4-2.1,0.6-3.3,0.6
				c-1.2,0-2.3-0.2-3.3-0.6c-1-0.4-1.8-0.9-2.5-1.7c-0.7-0.7-1.2-1.6-1.6-2.6c-0.4-1-0.6-2.2-0.6-3.5c0-1.3,0.2-2.4,0.6-3.4
				s0.9-1.9,1.6-2.6c0.7-0.7,1.5-1.3,2.5-1.6C258.4,344,259.5,343.8,260.7,343.8z M260.7,357.4c1.3,0,2.4-0.5,3-1.4
				c0.6-0.9,1-2.2,1-4s-0.3-3.1-1-4c-0.6-0.9-1.7-1.4-3-1.4c-1.4,0-2.4,0.5-3,1.4c-0.7,0.9-1,2.2-1,4c0,1.7,0.3,3,1,4
				C258.3,357,259.4,357.4,260.7,357.4z"/>
			<path id="Fill-35" class="st0" d="M283,360.7c-0.5,0-0.8-0.2-1-0.7l-0.3-1.6c-0.3,0.4-0.7,0.7-1.1,1c-0.4,0.3-0.8,0.6-1.2,0.8
				c-0.4,0.2-0.9,0.4-1.4,0.5c-0.5,0.1-1,0.2-1.6,0.2c-0.9,0-1.7-0.2-2.4-0.6c-0.7-0.4-1.4-0.9-1.9-1.6c-0.5-0.7-0.9-1.6-1.2-2.6
				c-0.3-1-0.4-2.2-0.4-3.5c0-1.2,0.2-2.3,0.5-3.3c0.3-1,0.8-1.9,1.4-2.7c0.6-0.8,1.3-1.3,2.2-1.8c0.9-0.4,1.8-0.6,2.9-0.6
				c0.9,0,1.7,0.1,2.3,0.4c0.6,0.3,1.2,0.7,1.7,1.2v-8.5h3.9v23.4H283z M277.8,357.9c0.8,0,1.5-0.2,2.1-0.5c0.6-0.3,1.1-0.8,1.6-1.4
				v-7.2c-0.4-0.5-0.9-0.9-1.4-1.1c-0.5-0.2-1.1-0.3-1.7-0.3c-0.6,0-1.1,0.1-1.6,0.3c-0.5,0.2-0.9,0.6-1.2,1c-0.3,0.4-0.6,1-0.8,1.7
				c-0.2,0.7-0.3,1.5-0.3,2.4c0,0.9,0.1,1.7,0.2,2.4c0.2,0.7,0.4,1.2,0.7,1.6c0.3,0.4,0.6,0.7,1,0.9
				C276.9,357.8,277.3,357.9,277.8,357.9z"/>
			<path id="Fill-36" class="st0" d="M299.4,347.2c-0.1,0.2-0.2,0.3-0.3,0.4c-0.1,0.1-0.3,0.1-0.4,0.1c-0.2,0-0.4-0.1-0.6-0.2
				c-0.2-0.1-0.5-0.2-0.8-0.4c-0.3-0.1-0.6-0.2-1-0.4c-0.4-0.1-0.8-0.2-1.3-0.2c-0.8,0-1.4,0.2-1.8,0.5c-0.4,0.3-0.7,0.8-0.7,1.3
				c0,0.3,0.1,0.6,0.3,0.9c0.2,0.2,0.5,0.4,0.9,0.6c0.4,0.2,0.8,0.3,1.3,0.5c0.5,0.1,1,0.3,1.5,0.5s1,0.4,1.4,0.6
				c0.5,0.2,0.9,0.5,1.3,0.8c0.4,0.3,0.7,0.7,0.9,1.2c0.2,0.5,0.3,1,0.3,1.7c0,0.8-0.1,1.5-0.4,2.1c-0.3,0.7-0.7,1.2-1.2,1.7
				c-0.5,0.5-1.2,0.8-2,1.1c-0.8,0.3-1.7,0.4-2.8,0.4c-0.6,0-1.1-0.1-1.6-0.2c-0.5-0.1-1-0.2-1.5-0.4c-0.5-0.2-0.9-0.4-1.4-0.6
				c-0.4-0.2-0.8-0.5-1.1-0.8l0.9-1.5c0.1-0.2,0.3-0.3,0.4-0.4c0.2-0.1,0.4-0.1,0.6-0.1c0.2,0,0.5,0.1,0.7,0.2
				c0.2,0.1,0.5,0.3,0.7,0.4c0.3,0.2,0.6,0.3,1,0.4c0.4,0.1,0.9,0.2,1.5,0.2c0.5,0,0.9-0.1,1.2-0.2c0.3-0.1,0.6-0.3,0.8-0.4
				c0.2-0.2,0.4-0.4,0.5-0.6c0.1-0.2,0.1-0.5,0.1-0.7c0-0.4-0.1-0.7-0.3-0.9c-0.2-0.2-0.5-0.5-0.9-0.6c-0.4-0.2-0.8-0.3-1.3-0.5
				c-0.5-0.1-1-0.3-1.5-0.5c-0.5-0.2-1-0.4-1.5-0.6c-0.5-0.2-0.9-0.5-1.3-0.9c-0.4-0.3-0.7-0.8-0.9-1.3c-0.2-0.5-0.3-1.1-0.3-1.8
				c0-0.7,0.1-1.3,0.4-1.9c0.3-0.6,0.7-1.1,1.2-1.6c0.5-0.4,1.1-0.8,1.9-1.1c0.8-0.3,1.6-0.4,2.6-0.4c1.1,0,2.1,0.2,3.1,0.6
				c0.9,0.4,1.7,0.8,2.3,1.4L299.4,347.2"/>
			<path id="Fill-37" class="st0" d="M311.5,360.7h3.9v-16.1h-3.9V360.7z M316,339.8c0,0.3-0.1,0.7-0.2,0.9
				c-0.1,0.3-0.3,0.6-0.5,0.8c-0.2,0.2-0.5,0.4-0.8,0.5c-0.3,0.1-0.6,0.2-1,0.2c-0.3,0-0.7-0.1-1-0.2c-0.3-0.1-0.6-0.3-0.8-0.5
				c-0.2-0.2-0.4-0.5-0.5-0.8c-0.1-0.3-0.2-0.6-0.2-0.9c0-0.3,0.1-0.7,0.2-1c0.1-0.3,0.3-0.6,0.5-0.8c0.2-0.2,0.5-0.4,0.8-0.5
				c0.3-0.1,0.6-0.2,1-0.2c0.3,0,0.7,0.1,1,0.2c0.3,0.1,0.6,0.3,0.8,0.5c0.2,0.2,0.4,0.5,0.5,0.8C315.9,339.2,316,339.5,316,339.8z"
				/>
			<path id="Fill-38" class="st0" d="M319.1,360.2V344h2.4c0.5,0,0.8,0.2,1,0.7l0.3,1.3c0.3-0.3,0.7-0.6,1-0.9
				c0.4-0.3,0.7-0.5,1.2-0.7c0.4-0.2,0.8-0.4,1.3-0.5c0.5-0.1,1-0.2,1.5-0.2c0.9,0,1.7,0.1,2.4,0.4c0.7,0.3,1.3,0.7,1.7,1.3
				c0.5,0.5,0.8,1.2,1,1.9c0.2,0.8,0.4,1.6,0.4,2.5v10.3h-3.9v-10.3c0-1-0.2-1.7-0.7-2.3c-0.5-0.5-1.1-0.8-2.1-0.8
				c-0.7,0-1.3,0.2-1.9,0.5c-0.6,0.3-1.1,0.7-1.7,1.2v11.7H319.1"/>
			<path id="Fill-39" class="st0" d="M355.9,360.7c-0.5,0-0.8-0.2-1-0.7l-0.3-1.6c-0.3,0.4-0.7,0.7-1.1,1c-0.4,0.3-0.8,0.6-1.2,0.8
				c-0.4,0.2-0.9,0.4-1.4,0.5c-0.5,0.1-1,0.2-1.6,0.2c-0.9,0-1.7-0.2-2.4-0.6c-0.7-0.4-1.4-0.9-1.9-1.6c-0.5-0.7-0.9-1.6-1.2-2.6
				c-0.3-1-0.4-2.2-0.4-3.5c0-1.2,0.2-2.3,0.5-3.3c0.3-1,0.8-1.9,1.4-2.7c0.6-0.8,1.3-1.3,2.2-1.8c0.9-0.4,1.8-0.6,2.9-0.6
				c0.9,0,1.7,0.1,2.3,0.4s1.2,0.7,1.7,1.2v-8.5h3.9v23.4H355.9z M350.7,357.9c0.8,0,1.5-0.2,2.1-0.5c0.6-0.3,1.1-0.8,1.6-1.4v-7.2
				c-0.4-0.5-0.9-0.9-1.4-1.1c-0.5-0.2-1.1-0.3-1.7-0.3c-0.6,0-1.1,0.1-1.6,0.3c-0.5,0.2-0.9,0.6-1.2,1c-0.3,0.4-0.6,1-0.8,1.7
				c-0.2,0.7-0.3,1.5-0.3,2.4c0,0.9,0.1,1.7,0.2,2.4c0.2,0.7,0.4,1.2,0.7,1.6c0.3,0.4,0.6,0.7,1,0.9
				C349.7,357.8,350.2,357.9,350.7,357.9z"/>
			<path id="Fill-40" class="st0" d="M362.8,360.2v-16.1h2.3c0.4,0,0.7,0.1,0.8,0.2c0.2,0.1,0.3,0.4,0.3,0.8l0.2,1.8
				c0.5-1,1.1-1.7,1.8-2.3c0.7-0.6,1.5-0.8,2.5-0.8c0.7,0,1.3,0.2,1.8,0.5l-0.3,2.9c-0.1,0.2-0.1,0.3-0.2,0.4
				c-0.1,0.1-0.2,0.1-0.4,0.1c-0.2,0-0.4,0-0.7-0.1c-0.3-0.1-0.6-0.1-0.9-0.1c-0.4,0-0.8,0.1-1.2,0.2c-0.3,0.1-0.6,0.3-0.9,0.5
				c-0.3,0.2-0.5,0.5-0.7,0.9c-0.2,0.3-0.4,0.7-0.6,1.1v9.9H362.8"/>
			<path id="Fill-41" class="st0" d="M380.3,364.3c-0.1,0.3-0.3,0.5-0.4,0.6s-0.5,0.2-0.8,0.2H376l3-6.5l-6.6-14.9h3.4
				c0.3,0,0.5,0.1,0.7,0.2c0.2,0.1,0.3,0.3,0.4,0.5l3.4,8.4c0.2,0.6,0.4,1.1,0.5,1.7c0.1-0.3,0.2-0.6,0.3-0.9
				c0.1-0.3,0.2-0.6,0.3-0.9l3.3-8.3c0.1-0.2,0.2-0.4,0.4-0.5c0.2-0.1,0.4-0.2,0.7-0.2h3.1L380.3,364.3"/>
			<path id="Fill-42" class="st0" d="M408.6,360.2c-0.4,0-0.7-0.1-0.9-0.2c-0.2-0.1-0.4-0.3-0.5-0.7l-0.3-1.1
				c-0.4,0.4-0.8,0.7-1.2,1c-0.4,0.3-0.8,0.5-1.2,0.7c-0.4,0.2-0.9,0.3-1.4,0.4c-0.5,0.1-1,0.1-1.6,0.1c-0.7,0-1.3-0.1-1.9-0.3
				c-0.6-0.2-1.1-0.5-1.5-0.8c-0.4-0.4-0.7-0.8-1-1.4c-0.2-0.5-0.3-1.2-0.3-1.9c0-0.6,0.2-1.2,0.5-1.8c0.3-0.6,0.9-1.1,1.6-1.6
				c0.7-0.5,1.7-0.9,3-1.2c1.2-0.3,2.8-0.5,4.7-0.5V350c0-1.1-0.2-1.9-0.7-2.4c-0.5-0.5-1.1-0.8-2-0.8c-0.6,0-1.2,0.1-1.6,0.2
				c-0.4,0.1-0.8,0.3-1.1,0.5c-0.3,0.2-0.6,0.4-0.9,0.5c-0.3,0.1-0.5,0.2-0.9,0.2c-0.3,0-0.5-0.1-0.7-0.2c-0.2-0.1-0.3-0.3-0.5-0.5
				l-0.7-1.2c1.9-1.7,4.1-2.5,6.7-2.5c0.9,0,1.8,0.2,2.5,0.5s1.4,0.7,1.9,1.3s0.9,1.2,1.2,2c0.3,0.8,0.4,1.6,0.4,2.5v10.2H408.6z
				 M402.7,357.8c0.8,0,1.5-0.1,2.1-0.4c0.6-0.3,1.2-0.7,1.7-1.3v-2.7c-1.1,0.1-2.1,0.1-2.9,0.3s-1.4,0.3-1.8,0.5
				c-0.5,0.2-0.8,0.5-1,0.8c-0.2,0.3-0.3,0.6-0.3,1c0,0.7,0.2,1.2,0.6,1.5C401.6,357.6,402.1,357.8,402.7,357.8z"/>
			<path id="Fill-43" class="st0" d="M414.6,360.2v-16.1h2.3c0.4,0,0.7,0.1,0.8,0.2c0.2,0.1,0.3,0.4,0.3,0.8l0.2,1.8
				c0.5-1,1.1-1.7,1.8-2.3c0.7-0.6,1.5-0.8,2.5-0.8c0.7,0,1.3,0.2,1.8,0.5l-0.3,2.9c-0.1,0.2-0.1,0.3-0.2,0.4
				c-0.1,0.1-0.2,0.1-0.4,0.1c-0.2,0-0.4,0-0.7-0.1c-0.3-0.1-0.6-0.1-0.9-0.1c-0.4,0-0.8,0.1-1.2,0.2c-0.3,0.1-0.6,0.3-0.9,0.5
				c-0.3,0.2-0.5,0.5-0.7,0.9c-0.2,0.3-0.4,0.7-0.6,1.1v9.9H414.6"/>
			<path id="Fill-44" class="st0" d="M432.1,343.8c1,0,2,0.2,2.8,0.5c0.9,0.3,1.6,0.8,2.2,1.4c0.6,0.6,1.1,1.4,1.5,2.3
				c0.4,0.9,0.5,1.9,0.5,3.1c0,0.6-0.1,1-0.2,1.2c-0.1,0.2-0.4,0.3-0.7,0.3h-10c0.1,0.8,0.2,1.5,0.4,2.1c0.2,0.6,0.5,1.1,0.9,1.5
				c0.4,0.4,0.8,0.7,1.4,0.9c0.5,0.2,1.1,0.3,1.7,0.3c0.6,0,1.2-0.1,1.6-0.2c0.5-0.1,0.9-0.3,1.2-0.5c0.3-0.2,0.6-0.3,0.9-0.5
				c0.3-0.1,0.5-0.2,0.7-0.2c0.3,0,0.6,0.1,0.7,0.4l1.1,1.4c-0.4,0.5-0.9,0.9-1.5,1.3c-0.5,0.3-1.1,0.6-1.7,0.8
				c-0.6,0.2-1.2,0.4-1.8,0.4c-0.6,0.1-1.2,0.1-1.8,0.1c-1.1,0-2.2-0.2-3.1-0.6c-1-0.4-1.8-0.9-2.5-1.7c-0.7-0.7-1.3-1.6-1.7-2.7
				c-0.4-1.1-0.6-2.3-0.6-3.7c0-1.1,0.2-2.1,0.5-3.1c0.4-1,0.9-1.8,1.5-2.5c0.7-0.7,1.5-1.3,2.5-1.7
				C429.8,344,430.9,343.8,432.1,343.8z M432.2,346.6c-1.1,0-2,0.3-2.7,1c-0.6,0.6-1.1,1.5-1.2,2.7h7.4c0-0.5-0.1-1-0.2-1.4
				c-0.1-0.4-0.4-0.8-0.6-1.2c-0.3-0.3-0.6-0.6-1.1-0.8C433.3,346.7,432.8,346.6,432.2,346.6z"/>
			<path id="Fill-45" class="st0" d="M452.3,360.2c-0.4,0-0.7-0.1-0.9-0.2c-0.2-0.1-0.4-0.3-0.5-0.7l-0.3-1.1
				c-0.4,0.4-0.8,0.7-1.2,1c-0.4,0.3-0.8,0.5-1.2,0.7c-0.4,0.2-0.9,0.3-1.4,0.4c-0.5,0.1-1,0.1-1.6,0.1c-0.7,0-1.3-0.1-1.9-0.3
				c-0.6-0.2-1.1-0.5-1.5-0.8c-0.4-0.4-0.7-0.8-1-1.4c-0.2-0.5-0.3-1.2-0.3-1.9c0-0.6,0.2-1.2,0.5-1.8c0.3-0.6,0.9-1.1,1.6-1.6
				c0.7-0.5,1.7-0.9,3-1.2c1.2-0.3,2.8-0.5,4.7-0.5V350c0-1.1-0.2-1.9-0.7-2.4c-0.5-0.5-1.1-0.8-2-0.8c-0.6,0-1.2,0.1-1.6,0.2
				c-0.4,0.1-0.8,0.3-1.1,0.5c-0.3,0.2-0.6,0.4-0.9,0.5c-0.3,0.1-0.5,0.2-0.9,0.2c-0.3,0-0.5-0.1-0.7-0.2c-0.2-0.1-0.3-0.3-0.5-0.5
				l-0.7-1.2c1.9-1.7,4.1-2.5,6.7-2.5c0.9,0,1.8,0.2,2.5,0.5c0.7,0.3,1.4,0.7,1.9,1.3c0.5,0.6,0.9,1.2,1.2,2
				c0.3,0.8,0.4,1.6,0.4,2.5v10.2H452.3z M446.5,357.8c0.8,0,1.5-0.1,2.1-0.4c0.6-0.3,1.2-0.7,1.7-1.3v-2.7
				c-1.1,0.1-2.1,0.1-2.9,0.3c-0.8,0.1-1.4,0.3-1.8,0.5c-0.5,0.2-0.8,0.5-1,0.8c-0.2,0.3-0.3,0.6-0.3,1c0,0.7,0.2,1.2,0.6,1.5
				C445.3,357.6,445.8,357.8,446.5,357.8z"/>
			<path id="Fill-46" class="st0" d="M467.8,347.2c-0.1,0.2-0.2,0.3-0.3,0.4c-0.1,0.1-0.3,0.1-0.4,0.1c-0.2,0-0.4-0.1-0.6-0.2
				c-0.2-0.1-0.5-0.2-0.8-0.4c-0.3-0.1-0.6-0.2-1-0.4c-0.4-0.1-0.8-0.2-1.3-0.2c-0.8,0-1.4,0.2-1.8,0.5c-0.4,0.3-0.7,0.8-0.7,1.3
				c0,0.3,0.1,0.6,0.3,0.9c0.2,0.2,0.5,0.4,0.9,0.6c0.4,0.2,0.8,0.3,1.3,0.5s1,0.3,1.5,0.5c0.5,0.2,1,0.4,1.4,0.6
				c0.5,0.2,0.9,0.5,1.3,0.8c0.4,0.3,0.7,0.7,0.9,1.2c0.2,0.5,0.3,1,0.3,1.7c0,0.8-0.1,1.5-0.4,2.1c-0.3,0.7-0.7,1.2-1.2,1.7
				c-0.5,0.5-1.2,0.8-2,1.1c-0.8,0.3-1.7,0.4-2.8,0.4c-0.6,0-1.1-0.1-1.6-0.2c-0.5-0.1-1-0.2-1.5-0.4c-0.5-0.2-0.9-0.4-1.4-0.6
				c-0.4-0.2-0.8-0.5-1.1-0.8l0.9-1.5c0.1-0.2,0.3-0.3,0.4-0.4c0.2-0.1,0.4-0.1,0.6-0.1c0.2,0,0.5,0.1,0.7,0.2
				c0.2,0.1,0.5,0.3,0.7,0.4c0.3,0.2,0.6,0.3,1,0.4c0.4,0.1,0.9,0.2,1.5,0.2c0.5,0,0.9-0.1,1.2-0.2c0.3-0.1,0.6-0.3,0.8-0.4
				c0.2-0.2,0.4-0.4,0.5-0.6c0.1-0.2,0.1-0.5,0.1-0.7c0-0.4-0.1-0.7-0.3-0.9c-0.2-0.2-0.5-0.5-0.9-0.6c-0.4-0.2-0.8-0.3-1.3-0.5
				c-0.5-0.1-1-0.3-1.5-0.5c-0.5-0.2-1-0.4-1.5-0.6c-0.5-0.2-0.9-0.5-1.3-0.9c-0.4-0.3-0.7-0.8-0.9-1.3c-0.2-0.5-0.3-1.1-0.3-1.8
				c0-0.7,0.1-1.3,0.4-1.9c0.3-0.6,0.7-1.1,1.2-1.6c0.5-0.4,1.1-0.8,1.9-1.1c0.8-0.3,1.6-0.4,2.6-0.4c1.1,0,2.1,0.2,3.1,0.6
				s1.7,0.8,2.3,1.4L467.8,347.2"/>
			<path id="Fill-47" class="st1" d="M6.8,266.8L6.8,266.8c-0.1,18.6-15.3,35.6-34,37.9v0l-0.2,0l-34.2,4.2v-19.1l24-26.7l0,0
				c6.5-7.3,9.9-16.7,10.3-26.2c0.1,0,0.2,0,0.4,0v0l33.7-4.1V266.8"/>
			<path id="Fill-48" class="st2" d="M-131.2,266.8L-131.2,266.8c0.1,18.6,15.3,35.6,34,37.9v0l0.2,0l34.2,4.2v-34
				c0-18.7-15.4-35.8-34.2-38.1c-0.2,0-0.3,0-0.5-0.1v0l-33.7-4.1V266.8"/>
			<path id="Fill-49" class="st0" d="M-38.8,210L-38.8,210c12.3,14,12.1,36.8-0.3,50.8l0,0l-21.1,23.5v-8.7
				c0-19.2-14.9-36.9-33.7-40.9c0.2-9,3.4-17.9,9.5-24.7c0.1-0.1,0.2-0.2,0.3-0.3l0,0l22.6-25.2L-38.8,210"/>
		</g>
	</g>
</g>
</svg>
